<?xml version="1.0" encoding="utf-8"?>
<!-- Generator: Adobe Illustrator 23.0.1, SVG Export Plug-In . SVG Version: 6.00 Build 0)  -->
<svg version="1.1" id="Layer_1" xmlns="http://www.w3.org/2000/svg" xmlns:xlink="http://www.w3.org/1999/xlink" x="0px" y="0px"
	 viewBox="0 0 405 405" style="enable-background:new 0 0 405 405;" xml:space="preserve">
<style type="text/css">
	.st0{fill:#673265;}
	.st1{fill:#FFFDFE;}
	.st2{fill:#FFFFFF;}
</style>
<g>
	<g id="purple">
		<path class="st0" d="M226,159.99V3.9c-7.78-0.92-15.7-1.4-23.72-1.4C106.41,2.5,26.29,69.96,6.8,159.99H226z"/>
		<path class="st0" d="M2.5,202.5c0,110.46,89.54,200,200,200s200-89.54,200-200c0-14.59-1.56-28.81-4.53-42.51H7.03
			C4.06,173.69,2.5,187.91,2.5,202.5"/>
		<path class="st0" d="M379.96,110.62H254.42v49.38h143.33C393.98,142.58,387.94,126.01,379.96,110.62"/>
		<path class="st0" d="M226,3.9v106.72h153.96C350.14,53.06,293.17,11.83,226,3.9"/>
		<rect x="226" y="128.9" class="st0" width="28.42" height="31.09"/>
		<rect x="226" y="110.62" class="st0" width="18.29" height="18.29"/>
		<rect x="248.08" y="120.74" class="st0" width="6.34" height="8.16"/>
		<rect x="244.29" y="120.74" class="st0" width="3.8" height="4.08"/>
		<rect x="244.29" y="124.82" class="st0" width="3.8" height="4.08"/>
		<rect x="244.29" y="110.62" class="st0" width="9.99" height="10.12"/>
	</g>
	<path id="C" class="st1" d="M205.16,227.48c0,0,5.77,18.52,23.49,14.23c0,0,48.46-7.79,73.96-117.85c0,0,10.07-46.98-23.63-64.97
		c-0.39-0.21-0.79-0.4-1.19-0.59c2.3-7.82,3.54-14.72,3.33-20.35c0,0,0-16.64-20.4,0c-4.69,3.83-12.86,11.6-22.84,22.77
		c-25.91,10.14-51.8,31.52-59.31,40.05c0,0-72.48,73.02-77.75,166.17c0,0-8.42,94.33,63.52,94.28c0,0,52.06,6.35,109.51-84.92
		c0,0-1.66-9.02-4-5.87c-2.35,3.15-74.37,98.16-124.3,75.97c-2.92-1.6-25.86-10.15-31.08-62.21c-1.23-13.6-1.29-20.9,2.24-37.48
		c8.51-39.94,33.74-116.01,106.96-170.64c0,0,0.83-0.54,2.3-1.39c-33.09,40.6-76.84,109.53-87.67,192.53c0,0,3.22,15.57,13.42,14.5
		c0,0-0.53-86.71,87.11-213.1c7.46-2.81,16.79-5.1,25.94-4.06c-7.23,20.8-20.96,51.91-36.27,80.25
		C228.52,144.79,197.38,198.76,205.16,227.48z M248.47,57.26c7.61-8.47,17.66-18.54,20.86-16.62c1.6,0.96,0.87,6.42-1.61,14.85
		C261.69,54.79,255.17,55.52,248.47,57.26z M285.43,74.99c22.55,24.7-15.3,149.8-65.24,154.56c0,0-20.8,0.34,2.42-50.94
		c16.37-36.15,40.84-79.43,52.25-111.36C278.62,68.95,282.2,71.45,285.43,74.99z"/>
	<path id="lines" class="st2" d="M255.14,159.27v-29.63v-1.45v-8.16H255v-8.67h124.96v-1.45H253.55v0h-8.53v0h-18.29V3.9h-1.45
		v105.99h0v19.74h0v29.63H6.8v1.45h218.47h29.87h142.6v-1.45H255.14z M245.01,111.34h8.53v8.67h-4.74h-1.45h-2.34V111.34z
		 M245.01,121.47h2.34v2.63h-2.34V121.47z M245.01,125.55h2.34v2.63h-2.34V125.55z M226.73,111.34h16.83v8.67v4.08v1.46v2.63h-16.83
		V111.34z M253.69,159.27h-26.96v-29.63h18.29h2.34h6.34V159.27z M253.69,128.18h-4.88v-2.63v-1.46v-2.63h4.88V128.18z"/>
</g>
</svg>
